<svg width="80" height="32" viewBox="0 0 80 32" fill="none" xmlns="http://www.w3.org/2000/svg">
<g clip-path="url(#clip0_3737_4614)">
<path fill-rule="evenodd" clip-rule="evenodd" d="M50.036 8.43906C97.3676 -7.95087 68.9199 19.2092 69.451 18.4419C78.4707 5.43247 59.4221 8.38595 50.036 8.43906Z" fill="#D62D31"/>
<path fill-rule="evenodd" clip-rule="evenodd" d="M34.4135 3.74604C38.6632 2.71856 59.459 5.3122 59.0742 8.03916C58.5377 7.85382 58.6223 10.364 57.7931 9.5728C55.181 7.07887 36.4641 4.02676 34.4135 3.74604Z" fill="#D62D31"/>
<path d="M30.8335 27.8616V9.82534H40.1036V12.3149H33.5323V16.8357H40.1036V19.4087H33.5323V25.2376H40.1036V27.8616H30.8335ZM43.198 27.8616V9.82534H52.4692V12.3149H45.8979V16.8357H52.4692V19.4087H45.8979V25.2376H52.4692V27.8616H43.198ZM68.896 14.2117C68.133 13.505 67.3234 12.975 66.4758 12.6217C65.6239 12.2683 64.7297 12.0917 63.7922 12.0917C61.9757 12.0917 60.5006 12.7225 59.3625 13.9884C58.2234 15.2543 57.6544 16.8942 57.6544 18.9047C57.6544 20.8513 58.2082 22.4576 59.3159 23.7235C60.4236 24.9894 61.8207 25.6202 63.5093 25.6202C64.4891 25.6202 65.4266 25.4306 66.3176 25.0523C67.2042 24.674 68.0561 24.1061 68.8722 23.3409V26.6542C68.1482 27.2222 67.3548 27.6427 66.5029 27.9202C65.6467 28.202 64.7211 28.3407 63.7228 28.3407C62.4526 28.3407 61.2788 28.1142 60.1982 27.6633C59.1219 27.2092 58.1735 26.5448 57.3563 25.6658C56.5467 24.8041 55.9267 23.7864 55.4899 22.6169C55.0553 21.4485 54.8385 20.1999 54.8385 18.8787C54.8385 17.5543 55.0553 16.3143 55.4899 15.1535C55.9267 13.9884 56.5543 12.9707 57.3791 12.0917C58.2039 11.2051 59.149 10.532 60.2177 10.0779C61.2831 9.61941 62.4363 9.39288 63.6762 9.39288C64.6517 9.39288 65.5816 9.54787 66.4682 9.8546C67.3505 10.1624 68.211 10.6285 69.0434 11.2506L68.896 14.2117Z" fill="#D62D31" stroke="#D62D31" stroke-width="0.00867546"/>
<path fill-rule="evenodd" clip-rule="evenodd" d="M28.4804 30.5994C29.0429 31.3093 27.6848 32.3455 27.0681 31.6182L25.0272 29.2143C22.4553 30.982 19.3522 31.9997 15.9999 31.9997C7.18711 31.9997 0.00012207 24.8128 0.00012207 16C0.00012207 11.2571 2.09411 6.98564 5.40093 4.05058L3.34162 1.47536C2.75526 0.740512 4.16751 -0.303233 4.80915 0.537832L6.68746 2.99925C9.30603 1.1437 12.5998 0.000244141 16.0367 0.000244141C20.1673 0.000244141 24.223 1.84495 25.593 3.63872C26.4666 4.78218 28.3341 4.2706 28.3644 5.91046C28.3882 7.18615 26.3636 10.5049 27.1277 12.406C29.7647 18.9665 24.0377 24.9916 23.9239 24.8485L28.4804 30.5994Z" fill="#D62D31"/>
<path fill-rule="evenodd" clip-rule="evenodd" d="M15.9458 4.15356C22.5183 4.15356 27.879 9.51427 27.879 16.0867C27.879 22.6603 22.5183 28.021 15.9458 28.021C9.3723 28.021 4.0116 22.6603 4.0116 16.0867C4.0116 9.51427 9.3723 4.15356 15.9458 4.15356Z" fill="#D62D31"/>
<mask id="mask0_3737_4614" style="mask-type:luminance" maskUnits="userSpaceOnUse" x="4" y="4" width="24" height="25">
<path d="M15.9458 4.15356C22.5183 4.15356 27.879 9.51427 27.879 16.0867C27.879 22.6603 22.5183 28.021 15.9458 28.021C9.3723 28.021 4.0116 22.6603 4.0116 16.0867C4.0116 9.51427 9.3723 4.15356 15.9458 4.15356Z" fill="white"/>
</mask>
<g mask="url(#mask0_3737_4614)">
<path fill-rule="evenodd" clip-rule="evenodd" d="M16.8789 15.7355L16.7098 15.366L16.0498 15.2673L16.0877 14.4978L16.0216 13.9277L15.7983 13.2676L15.9284 12.3409L16.1766 11.9529L15.7441 11.6223L15.3583 11.0522L15.781 10.1407L15.6899 9.97707L15.639 9.75597L15.9663 9.57496L16.247 8.92032L16.0324 8.46944L15.6151 8.16488L15.6683 7.42353L16.0541 6.63882L16.4486 6.3852L17.1759 6.41121L17.7362 6.45782L18.2185 5.97659L18.9014 5.27859L19.3631 4.63154L19.7132 3.97473L20.0535 3.75037L20.8014 3.62248L21.8234 3.34284L22.451 2.99493L22.942 2.72397L22.9972 2.37172L23.9824 1.89808L26.6866 1.43744L28.2929 1.11987L28.0404 1.43744L28.2517 1.81895L29.0603 1.79945L29.3085 2.05415L28.8565 2.26875L27.8453 2.11484L27.1028 2.38364L27.1169 2.73155L27.868 2.67303L29.1546 3.06646L28.9909 3.47724L28.9985 4.00833L29.8591 4.20992L29.5372 4.52966L29.1827 4.40501L28.8402 4.55892L29.4938 4.83855L29.8905 4.9762L30.2742 5.47694L30.4996 6.20745L29.7268 6.74179L29.8623 6.98782L30.5733 7.30756L30.9657 8.01639L30.3078 8.30903L30.5798 8.8011L30.9126 9.07964L30.8725 9.17719L30.8746 9.17502L30.7717 9.47958L30.9906 9.5186L31.2822 9.66601L31.59 9.86652L31.6528 10.1234L31.3764 10.1949L30.5137 9.77005L30.4985 9.65517L30.7229 9.48175L30.66 9.32243L30.5245 9.15226L29.9035 8.99619L29.432 8.72306L28.8056 8.10635L28.3482 8.18114L27.6914 8.15296L27.4995 8.25809L27.5537 8.54964L27.3229 8.71222L27.4421 9.57279L27.4594 9.99116L27.1961 10.0302L26.1317 9.26498L25.5139 8.85746L24.8105 9.06772L24.2718 9.18803L24.6219 9.88603L24.2296 10.5298L24.0106 10.972L23.2378 11.1856L22.8173 10.8116L22.632 10.7358L22.1594 10.7835L21.2934 10.442L20.8729 10.39L21.8321 10.9645L22.8401 11.3698L23.692 11.3622L24.365 11.0967L24.5601 11.773L24.3856 12.6173L24.3455 13.3175L24.0258 14.0285L24.3 14.5899L24.9048 15.3605L24.6533 16.711L24.8972 17.5391L24.3065 19.1128L23.6757 19.3903L22.9972 19.1952L22.4445 18.3249L21.7009 17.5597L21.1829 16.1713L20.4534 15.7551L19.776 14.9172L19.3772 14.7102L19.2406 14.7861L19.0574 15.4212L18.3746 15.7995L17.5021 15.961L16.8789 15.7355Z" fill="#FEFEFE"/>
<path fill-rule="evenodd" clip-rule="evenodd" d="M9.08713 1.79296L8.25908 -0.256592C3.06095 1.07654 1.15663 8.42827 4.18706 11.8521L5.88653 12.07L6.11197 11.6289L6.44905 11.307L7.01915 10.596L7.10586 10.7596L7.12754 11.1108L7.34756 11.1823L7.65104 11.0523L7.55783 10.9211L7.41042 10.6307L7.44727 10.3228L7.63261 10.1072L7.8819 10.1007L8.14527 10.1126L8.37288 10.0367L8.43899 10.131L8.72946 9.98251L9.07196 10.1082L9.39603 10.0486L9.50767 9.88605L9.70384 9.80476L9.95855 9.76574L9.95204 9.51646L10.0366 9.31594L10.1016 9.12952L10.133 8.85314L10.2945 8.68298L10.4929 8.40335L10.6771 8.1042L10.8441 7.90152L10.9134 7.59913L11.141 7.52326L11.3816 7.1851L11.3762 6.93582L11.4814 6.80467L11.6277 6.53263L11.761 6.24107L11.9322 6.2053L12.24 6.24216L12.5175 6.07524L12.8134 5.89532L13.0833 5.67747L13.3336 5.47262L13.778 5.10303L13.9211 4.94587L14.0349 4.66841L14.3525 4.55786L14.6549 4.62722L14.7795 4.76379L15.0266 4.67491L15.2271 4.75945L15.161 4.94587L14.9572 5.45637L14.8521 5.86823L14.6408 6.32778L14.3926 6.8968L14.2788 7.17426L14.0273 7.37911L13.9439 7.57962L13.9124 7.856L13.9092 8.25161L13.7954 8.53016L13.5894 8.75885L13.2838 8.80545L13.0627 8.65046L12.6768 8.30255L12.4005 7.9904L12.2552 8.0641L12.2162 8.28846L12.1739 8.52149L12.3268 8.6678L12.2541 8.91601L12.0179 9.27909L12.2032 9.54355L12.2509 10.1007L12.4037 10.3879L12.2704 10.8268L12.4926 11.2127L12.8134 11.5281L12.5771 11.8922L12.2899 12.0451L12.1056 12.2727L12.3148 12.5697L12.0352 13.0129L11.8975 13.3067L11.4846 13.3511L11.2646 13.4573L11.2613 13.8031L11.0717 14.2334L11.0131 14.5704L10.7769 14.9335L10.7931 15.1676L10.9362 15.5112L10.6869 15.7854L10.7866 16.2081L10.5731 16.6048L10.5384 16.9744L10.4344 17.7364L10.2501 17.965L9.96939 17.9163L9.49358 17.6605L9.20094 18.0138L8.89421 18.2794L8.62542 18.6663L8.57989 19.0922L8.85844 19.4868L9.10664 19.5594L9.41229 19.2938L9.47082 18.9578L9.83282 18.7021L9.97264 18.9004L10.1807 19.1963L10.4788 19.4792L10.8581 19.4586L11.1605 19.8867L11.4575 20.1696L12.0254 20.0655L12.2054 19.6927L12.6281 19.5919L12.9012 19.3502L13.2036 18.9405L13.9915 18.7302L14.6353 18.5232L15.3518 18.5612L16.0216 18.533L16.7575 18.4582L17.6322 18.5818L18.3714 18.6522L18.8602 18.5048L19.543 18.5655L19.8389 19.1952L19.9863 20.175L20.3656 20.9933L20.3862 21.3727L20.1597 21.6794L20.1142 22.1053L20.2876 22.7719L20.5597 23.3691L20.5477 23.7712L20.4047 24.2665L20.3396 24.8052L20.2713 25.1976L20.3483 25.5877L20.7656 26.1806L21.1764 26.483L21.7746 26.7019L22.0066 27.0314L21.5416 27.2113L21.172 27.1756L20.5965 26.9892L20.008 26.7139L19.6449 26.4776L19.3501 26.3388L18.9805 26.3042L18.5372 26.0245L18.1546 25.8999L17.7308 25.5086L17.5975 25.1098L17.2962 24.6816L17.0545 24.4085L16.5884 24.0964L15.9869 23.7311L15.6206 23.8417L15.2542 23.9511L14.6137 23.8113L14.2636 23.6639L13.8528 23.3615L13.4854 22.9789L13.1396 22.9768L12.7386 22.618L12.6291 22.2527L12.5153 21.7412L12.4807 21.2729L12.3278 20.9857L11.8759 20.7625L11.4889 20.4926L11.0099 20.5836L10.2837 20.602L9.41662 20.77L8.9419 21.0052L7.99136 20.9846L7.36382 20.9337L6.9021 20.7668L6.35584 20.4124L5.95156 19.9084L5.4259 19.4412L5.01187 18.9936L4.72031 18.5091L4.70948 18.0734L5.03138 17.551L5.27416 16.9852L5.04113 16.6558L5.0769 16.2862L5.02921 15.7291L5.01404 15.1481L4.64445 15.1124L4.34205 15.5231L3.89442 15.9361L3.55518 16.2244L3.28313 16.9582L2.85176 17.3603L2.28816 17.1229L2.70436 16.7728L2.74988 16.3685C2.7954 16.1734 2.39004 16.7392 2.07248 16.8411C1.75599 16.9441 1.50021 16.762 1.55006 16.555C2.42256 12.9392 4.29545 4.39636 9.08713 1.79296Z" fill="#FEFEFE"/>
</g>
<path fill-rule="evenodd" clip-rule="evenodd" d="M21.5493 4.04299C38.7434 -4.23544 32.3455 17.1261 6.18359 25.6245C27.1322 15.677 33.9734 0.691733 21.5493 4.04299Z" fill="#D62D31"/>
<path fill-rule="evenodd" clip-rule="evenodd" d="M21.0171 4.18826C38.2112 -4.09016 31.8133 17.2703 5.65247 25.7698C26.6 15.8223 33.4423 0.837004 21.0171 4.18826Z" fill="#D62D31"/>
<path d="M78.1944 4.25544C78.8157 4.25544 79.3194 3.75174 79.3194 3.1304C79.3194 2.50907 78.8157 2.00537 78.1944 2.00537C77.573 2.00537 77.0693 2.50907 77.0693 3.1304C77.0693 3.75174 77.573 4.25544 78.1944 4.25544Z" stroke="#D62D31" stroke-width="0.113852"/>
<path d="M77.6838 3.79047V2.4259H78.2886C78.41 2.4259 78.5021 2.43891 78.5661 2.46275C78.629 2.48768 78.6788 2.53104 78.7167 2.59282C78.7547 2.6546 78.7731 2.72288 78.7731 2.79766C78.7731 2.89521 78.7417 2.9765 78.6799 3.04261C78.617 3.10873 78.5206 3.151 78.3894 3.16942C78.4371 3.19218 78.474 3.21494 78.4989 3.23662C78.5509 3.28539 78.6008 3.34609 78.6474 3.41871L78.8837 3.79047H78.6582L78.4783 3.5065C78.4252 3.42413 78.3818 3.36126 78.3482 3.31791C78.3136 3.27456 78.2832 3.24421 78.2561 3.22687C78.2301 3.20952 78.2019 3.1976 78.1737 3.1911C78.1542 3.18676 78.1206 3.1846 78.074 3.1846H77.8648V3.79047H77.6838ZM77.8648 3.02852H78.2518C78.3352 3.02852 78.3992 3.01985 78.4458 3.00251C78.4913 2.98517 78.5271 2.95807 78.5509 2.92014C78.5748 2.88329 78.5867 2.8421 78.5867 2.79875C78.5867 2.73372 78.5639 2.68061 78.5173 2.63942C78.4707 2.59715 78.397 2.57656 78.2962 2.57656H77.8648V3.02852Z" fill="#D62D31"/>
</g>
<defs>
<clipPath id="clip0_3737_4614">
<rect width="79.3755" height="32" fill="white"/>
</clipPath>
</defs>
</svg>
